<svg width="24" height="24" viewBox="0 0 24 24" fill="none" xmlns="http://www.w3.org/2000/svg">
  <path d="M18.0735 21.9107H3.43001M14.6408 9.83523L11.4635 5.19944C11.1207 4.69939 10.3828 4.69939 10.04 5.19944L6.86273 9.83523C6.58707 10.2374 6.03315 10.3315 5.64019 10.0428L2.82228 7.9727C2.18239 7.50263 1.30088 8.07339 1.46793 8.84961L3.28338 17.285C3.36892 17.6825 3.72033 17.9663 4.1269 17.9663H17.3766C17.7832 17.9663 18.1346 17.6825 18.2201 17.285L20.0356 8.84961C20.2026 8.07339 19.3211 7.50263 18.6812 7.9727L15.8633 10.0428C15.4703 10.3315 14.9164 10.2374 14.6408 9.83523Z" stroke="#FFC100" stroke-width="1.97218" stroke-linecap="round"/>
</svg>